<svg version="1.1" xmlns="http://www.w3.org/2000/svg" xmlns:xlink="http://www.w3.org/1999/xlink" width="94.35769" height="53.77584" viewBox="0,0,94.35769,53.77584"><g transform="translate(-270.32116,-150.61208)"><g data-paper-data="{&quot;isPaintingLayer&quot;:true}" fill-rule="nonzero" stroke-linecap="butt" stroke-linejoin="miter" stroke-miterlimit="10" stroke-dasharray="" stroke-dashoffset="0" style="mix-blend-mode: normal"><path d="M270.32116,204.38792v-53.77584h94.35769v53.77584z" fill="#55d400" stroke="#ffffff" stroke-width="0"/><g fill="#000000" stroke="none" stroke-width="1"><path d="M336.46913,170.34383l-2.86374,5.1911c-0.35365,0.64184 -1.01549,1.00276 -1.70097,1.00276c-0.00909,0 -0.01818,-0.00364 -0.02818,-0.00364c-0.17455,0.05273 -0.3591,0.09 -0.55093,0.09c-0.76548,0 -1.42005,-0.44729 -1.73643,-1.09004l-3.83196,-2.11462c-0.93731,-0.51729 -1.27823,-1.69643 -0.76185,-2.63464c0.51729,-0.93822 1.69915,-1.27914 2.63373,-0.76094l1.06004,0.58457c-1.69643,-4.90382 -6.34841,-8.44031 -11.82134,-8.44031c-6.90207,0 -12.51864,5.61475 -12.51864,12.51773c0,1.07095 -0.86821,1.94007 -1.93916,1.94007c-1.07277,0 -1.93916,-0.86912 -1.93916,-1.94007c0,-9.04124 7.35482,-16.39606 16.39606,-16.39606c7.26754,0 13.43686,4.75563 15.58148,11.31678l0.62548,-1.13368c0.5182,-0.93822 1.69734,-1.28005 2.63464,-0.76185c0.93822,0.51729 1.27732,1.69643 0.76094,2.63282z"/><path d="M334.53088,180.31329c0,9.04215 -7.35754,16.39697 -16.39606,16.39697c-7.26754,0 -13.43868,-4.75654 -15.58148,-11.31587l-0.62639,1.13277c-0.35365,0.64275 -1.01549,1.00367 -1.69915,1.00367c-0.31728,0 -0.63911,-0.07818 -0.93549,-0.24183c-0.93731,-0.5182 -1.27823,-1.69733 -0.76185,-2.63464l2.86465,-5.18655c0.35547,-0.64639 1.0264,-1.00185 1.71552,-0.9964c0.1791,-0.05546 0.36729,-0.09364 0.56638,-0.09364c0.76548,0 1.41823,0.44638 1.73461,1.08913l3.83196,2.11462c0.93913,0.51729 1.27823,1.69734 0.76185,2.63373c-0.35365,0.64275 -1.01549,1.00367 -1.69915,1.00367c-0.31728,0 -0.63911,-0.07818 -0.93549,-0.24274l-1.06004,-0.58457c1.69733,4.902 6.35023,8.44031 11.82407,8.44031c6.90207,0 12.51682,-5.61657 12.51682,-12.51955c0,-1.07095 0.86821,-1.93916 1.94098,-1.93916c1.07186,0 1.94007,0.86821 1.93825,1.94007z"/></g></g></g></svg>