<svg version="1.1" xmlns="http://www.w3.org/2000/svg" xmlns:xlink="http://www.w3.org/1999/xlink" width="113.51417" height="122.85" viewBox="0,0,113.51417,122.85"><g transform="translate(-260.74967,-116.06)"><g data-paper-data="{&quot;isPaintingLayer&quot;:true}" stroke="none" stroke-width="1" stroke-linecap="butt" stroke-linejoin="miter" stroke-miterlimit="10" stroke-dasharray="" stroke-dashoffset="0" style="mix-blend-mode: normal"><g><path d="M263.97,134.8h16.65c0,-2.66666 0.02,-5.42 0.06,-8.26v-10.48h73.13v10.49c0,2.92 0,5.66 0,8.26h17.24c1.64027,0.00338 2.99012,1.29167 3.07,2.93c0.28253,4.63598 0.14867,9.28794 -0.4,13.9c-0.47235,4.34913 -1.77959,8.56624 -3.85,12.42c-2.04532,3.65323 -5.10072,6.63918 -8.8,8.6c-4.31619,2.17101 -9.06902,3.33357 -13.9,3.4c-3.27,5.43 -7.63,8 -12.73,12.67c-6.17,4.71 -10.81,8.26 -7.2,19.13h5.39c4.3143,0.01099 7.80901,3.5057 7.82,7.82v3.15h0.77c2.04059,-0.00921 4.00117,0.793 5.45,2.23v0c1.44987,1.44267 2.26347,3.40466 2.26,5.45v5.23c0,0.97754 -0.79245,1.77 -1.77,1.77h-59.82c-0.97755,0 -1.77,-0.79245 -1.77,-1.77v-5.23c-0.00458,-2.04556 0.80919,-4.00796 2.26,-5.45v0c1.43959,-1.44834 3.39791,-2.26191 5.44,-2.26h0.77v-3.12c0,-2.07013 0.8282,-4.05423 2.3,-5.51v0c1.46119,-1.46252 3.44264,-2.28602 5.51,-2.29h6.06c3.22,-10.26 -1,-13.58 -6.83,-18.17c-5.25171,-3.57097 -9.67765,-8.22536 -12.98,-13.65c-4.98482,-0.01599 -9.89637,-1.20106 -14.34,-3.46c-3.68369,-1.95768 -6.71728,-4.94609 -8.73,-8.6c-2.03016,-3.84249 -3.30643,-8.0379 -3.76,-12.36c-0.52671,-4.5401 -0.65386,-9.11766 -0.38,-13.68v-0.08c0,-0.8186 0.32587,-1.60353 0.90564,-2.18143c0.57977,-0.5779 1.36576,-0.90123 2.18436,-0.89857zM353.47,146.06c-0.21857,6.04136 -0.88709,12.05802 -2,18c1.76605,-0.33219 3.45902,-0.97552 5,-1.9c1.54621,-0.95512 2.81775,-2.29557 3.69,-3.89c0.9912,-1.87092 1.64455,-3.90205 1.93,-6c0.31059,-2.06931 0.47766,-4.15763 0.5,-6.25h-9.12zM280.88,146.06h-8.12c0.01776,2.0974 0.16805,4.19156 0.45,6.27c0.25284,2.08814 0.86165,4.11751 1.8,6c0.82666,1.58578 2.05838,2.92445 3.57,3.88c1.45313,0.88775 3.05065,1.51389 4.72,1.85c-1.39838,-5.9055 -2.209,-11.93487 -2.42,-18z" fill="#f39d00" fill-rule="nonzero"/><path d="M280.84,142.97h-9.91c-0.67931,0 -1.23,0.55069 -1.23,1.23c0,6.18 0.48,11.49 2.66,15.57c2.18,4.08 5.98,6.79 12.54,7.67c0.94077,1.96631 2.10874,3.81558 3.48,5.51c-10.92,-0.31 -17.19,-4.35 -20.62,-10.46c-3.66,-6.43 -4.25,-15.33 -3.79,-24.61h16.87zM353.61,137.89h17.43c0.45,9.28 -0.17,18.15 -3.84,24.62c-3.48,6.12 -9.77,10.16 -20.77,10.45c1.46641,-1.67048 2.70703,-3.52635 3.69,-5.52c6.54,-0.89 10.42,-3.58 12.7,-7.64c2.28,-4.06 2.84,-9.4 2.84,-15.6c-0.00549,-0.6754 -0.55457,-1.22002 -1.23,-1.22h-10.82z" fill="#f9c809" fill-rule="nonzero"/><path d="M340.45,218.82h0.77c2.04202,-0.00655 4.0028,0.79935 5.45,2.24v0c1.44987,1.44267 2.26347,3.40466 2.26,5.45v10.63c0,0.97754 -0.79245,1.77 -1.77,1.77h-59.82c-0.97755,0 -1.77,-0.79246 -1.77,-1.77v-10.6c-0.01263,-2.05594 0.80176,-4.03065 2.26,-5.48v0c1.43959,-1.44834 3.39791,-2.26191 5.44,-2.26h47.18z" fill="#222222" fill-rule="nonzero"/><path d="M338.05,224.05c1.12622,0.01189 2.20304,0.46415 3,1.26c0.80041,0.79388 1.2535,1.87267 1.26,3v5.28h-50.08v-5.28c0.00385,-1.1259 0.45326,-2.20448 1.25,-3v0c0.79302,-0.80047 1.87322,-1.25055 3,-1.25h34.92z" fill="#ead79e" fill-rule="nonzero"/><path d="M302.86,187.55c-2.35874,-1.78024 -4.60007,-3.71092 -6.71,-5.78c-3.63171,-3.65684 -6.48568,-8.01092 -8.39,-12.8c-2.32,-5.77 -4,-13.31 -4.47,-23.5v-26.77h4.63c5.29,37.57 7.38,64.69 29.55,72.57v17.79h-6c3.48,-12 -1.6,-16 -8.61,-21.51z" fill="#f8b705" fill-rule="nonzero"/><path d="M317.51,209.06v-17.81h-0.07v-0.15c-0.75104,-0.20145 -1.48908,-0.44857 -2.21,-0.74c-1.93233,-0.85629 -3.76634,-1.91914 -5.47,-3.17c-3.77711,-3.09546 -6.94157,-6.87043 -9.33,-11.13c-7.01,-13.19 -9.09,-33.08 -12.51,-57.36h63.34v27.46c0,26.23 -10.45,34.21 -18.5,40.35c-7.32,5.55 -12.88,9.84 -9,22.55h-6.29z" fill="#fac809" fill-rule="nonzero"/><path d="M319.02,136.19l2.8,6.87l7.39,0.56c0.78737,0.06062 1.45516,0.60194 1.67738,1.35973c0.22222,0.75779 -0.04745,1.57403 -0.67738,2.05027l-5.59,4.74l1.76,7.18c0.11714,0.49068 0.03433,1.0078 -0.23016,1.43737c-0.2645,0.42957 -0.68896,0.73632 -1.17984,0.85263c-0.51117,0.12576 -1.05164,0.03144 -1.49,-0.26l-6.22,-3.92l-6.29,3.89c-0.42939,0.26623 -0.94713,0.35049 -1.43877,0.23415c-0.49165,-0.11634 -0.91671,-0.42371 -1.18123,-0.85415c-0.27059,-0.42827 -0.35372,-0.94876 -0.23,-1.44l1.75,-7.18l-5.66,-4.8c-0.58278,-0.50252 -0.80706,-1.30569 -0.56897,-2.03745c0.23809,-0.73176 0.89207,-1.24917 1.65897,-1.31254l7.39,-0.5l2.81,-6.84c0.29841,-0.70784 0.99183,-1.16804 1.76,-1.16804c0.76817,0 1.46159,0.46019 1.76,1.16804z" fill="#f39d00" fill-rule="nonzero"/><path d="M317.26,136.92l3.25,7.92l8.56,0.65l-6.55,5.55l2.03,8.32l-7.29,-4.51l-7.29,4.51l2.03,-8.32l-6.55,-5.55l8.55,-0.65l3.26,-7.92v0z" fill="#ffffff" fill-rule="nonzero"/><path d="M337.38,163.68l-0.07,0.1c-1.66818,-1.14961 -3.94549,-0.784 -5.17,0.83l-0.1,-0.08c0.58073,-0.79028 0.80545,-1.78699 0.62,-2.75c-0.12813,-0.9699 -0.64869,-1.84472 -1.44,-2.42c0.92985,0.22691 1.8712,0.40383 2.82,0.53c0.97113,-0.13172 1.8458,-0.6558 2.42,-1.45l0.1,0.07c-1.14117,1.66805 -0.78131,3.93693 0.82,5.17zM345.03,150.86l-0.07,0.1c-1.66442,-1.15718 -3.94533,-0.79541 -5.17,0.82l-0.1,-0.07c1.14961,-1.66818 0.78401,-3.9455 -0.83,-5.17l0.07,-0.1c1.67133,1.15076 3.95189,0.78534 5.18,-0.83l0.09,0.08c-1.14961,1.66818 -0.78401,3.9455 0.83,5.17zM345.09,137.3l-0.13,0.18c-3.05082,-2.10271 -7.21536,-1.43797 -9.46,1.51l-0.18,-0.13c1.0492,-1.43999 1.46132,-3.24753 1.14,-5c-0.23281,-1.77956 -1.19213,-3.38326 -2.65,-4.43l0.13,-0.18c3.05082,2.10271 7.21536,1.43797 9.46,-1.51l0.18,0.13c-1.0492,1.43999 -1.46132,3.24753 -1.14,5c0.23511,1.77875 1.19393,3.38162 2.65,4.43z" fill="#ffffff" fill-rule="evenodd"/></g></g></g></svg>