<svg version="1.1" xmlns="http://www.w3.org/2000/svg" xmlns:xlink="http://www.w3.org/1999/xlink" width="50.48192" height="70.36881" viewBox="0,0,50.48192,70.36881"><g transform="translate(-292.18297,-142.3156)"><g data-paper-data="{&quot;isPaintingLayer&quot;:true}" fill-rule="nonzero" stroke-linecap="butt" stroke-linejoin="miter" stroke-miterlimit="10" stroke-dasharray="" stroke-dashoffset="0" style="mix-blend-mode: normal"><path d="M322.82139,202.90909v4.5598c0,2.32557 -1.88989,4.21553 -4.21553,4.21553h-3.30217c-2.32557,0 -4.21553,-1.88996 -4.21553,-4.21553v-4.5598c0,-2.32557 1.88996,-4.21553 4.21553,-4.21553h3.30217c2.32564,0 4.21553,1.883 4.21553,4.21553z" fill="#3f61fc" stroke="none" stroke-width="1"/><path d="M293.37598,160.70467c0.79393,-4.47549 3.04924,-8.35378 6.7589,-11.62784c4.35605,-3.84316 10.0681,-5.76122 17.15019,-5.76122c7.44744,0 13.37728,1.94617 17.77549,5.83851c4.40523,3.89234 6.60433,8.42404 6.60433,13.58806c0,2.85953 -0.815,5.5645 -2.43095,8.11489c-1.62305,2.55742 -5.07978,6.02821 -10.38426,10.41946c-2.74009,2.27632 -4.44738,4.10304 -5.10775,5.48721c-0.39352,0.80797 -0.65348,1.99536 -0.79399,3.56206c-0.19673,2.17802 -2.00941,3.85721 -4.20148,3.85721h-3.44268c-2.40285,0 -4.31383,-1.99535 -4.21554,-4.39118c0.11241,-2.79637 0.56207,-5.58558 1.85484,-8.10092c1.26466,-2.45906 3.78688,-5.22719 7.58086,-8.2975c3.78695,-3.07031 6.05631,-5.07971 6.79403,-6.03523c1.13819,-1.50354 1.70729,-3.16164 1.70729,-4.97432c0,-2.5223 -1.0047,-4.67222 -3.02816,-6.47084c-2.02346,-1.7916 -4.7495,-2.69091 -8.1711,-2.69091c-3.30217,0 -6.06327,0.94147 -8.28352,2.81035c-1.56677,1.32086 -2.78927,3.13355 -3.66751,5.43101c-0.69556,1.8197 -2.52932,2.92979 -4.46144,2.69091l-6.09144,-0.7588c-1.29979,-0.1616 -2.19207,-1.3841 -1.9461,-2.69091z" fill="#000000" stroke="none" stroke-width="1"/><path d="M293.37598,160.70467c0.79393,-4.47549 3.04924,-8.35378 6.7589,-11.62784c4.35605,-3.84316 10.0681,-5.76122 17.15019,-5.76122c7.44744,0 13.37728,1.94617 17.77549,5.83851c4.40523,3.89234 6.60433,8.42404 6.60433,13.58806c0,2.85953 -0.815,5.5645 -2.43095,8.11489c-1.62305,2.55742 -5.07978,6.02821 -10.38426,10.41946c-2.74009,2.27632 -4.44738,4.10304 -5.10775,5.48721c-0.39352,0.80797 -0.65348,1.99536 -0.79399,3.56206c-0.19673,2.17802 -2.00941,3.85721 -4.20148,3.85721h-3.44268c-2.40285,0 -4.31383,-1.99535 -4.21554,-4.39118c0.11241,-2.79637 0.56207,-5.58558 1.85484,-8.10092c1.26466,-2.45906 3.78688,-5.22719 7.58086,-8.2975c3.78695,-3.07031 6.05631,-5.07971 6.79403,-6.03523c1.13819,-1.50354 1.70729,-3.16164 1.70729,-4.97432c0,-2.5223 -1.0047,-4.67222 -3.02816,-6.47084c-2.02346,-1.7916 -4.7495,-2.69091 -8.1711,-2.69091c-3.30217,0 -6.06327,0.94147 -8.28352,2.81035c-1.56677,1.32086 -2.78927,3.13355 -3.66751,5.43101c-0.69556,1.8197 -2.52932,2.92979 -4.46144,2.69091l-6.09144,-0.7588c-1.29979,-0.1616 -2.19207,-1.3841 -1.9461,-2.69091z" fill="#3f61fc" stroke="#1b0ca6" stroke-width="2"/><path d="M322.82139,202.90909v4.5598c0,2.32557 -1.88989,4.21553 -4.21553,4.21553h-3.30217c-2.32557,0 -4.21553,-1.88996 -4.21553,-4.21553v-4.5598c0,-2.32557 1.88996,-4.21553 4.21553,-4.21553h3.30217c2.32564,0 4.21553,1.883 4.21553,4.21553z" fill="#3f61fc" stroke="#1b0ca6" stroke-width="2"/></g></g></svg>